<svg id="settings" xmlns="http://www.w3.org/2000/svg" width="58" height="58" viewBox="0 0 58 58">
  <defs>
    <style>
      .cls-1 {
        opacity: 1;
      }
    </style>
  </defs>
  <path id="Path_355" data-name="Path 355" class="cls-1" d="M55.014,22.556H49.588A2.083,2.083,0,0,1,48.114,19l3.837-3.836a2.988,2.988,0,0,0,0-4.224l-4.89-4.89a3.058,3.058,0,0,0-4.224,0L39,9.885a2.083,2.083,0,0,1-3.556-1.473V2.986A2.989,2.989,0,0,0,32.459,0H25.541a2.989,2.989,0,0,0-2.986,2.986V8.412A2.083,2.083,0,0,1,19,9.885L15.164,6.049a3.058,3.058,0,0,0-4.224,0l-4.89,4.89a2.988,2.988,0,0,0,0,4.224L9.886,19a2.083,2.083,0,0,1-1.474,3.556H2.986A2.989,2.989,0,0,0,0,25.541v6.916a2.989,2.989,0,0,0,2.986,2.987H8.412A2.083,2.083,0,0,1,9.886,39L6.049,42.836a2.988,2.988,0,0,0,0,4.224l4.89,4.89a3.056,3.056,0,0,0,4.224,0L19,48.114a2.083,2.083,0,0,1,3.556,1.474v5.426A2.989,2.989,0,0,0,25.541,58h6.916a2.989,2.989,0,0,0,2.986-2.986V49.588A2.083,2.083,0,0,1,39,48.114l3.836,3.837a3.058,3.058,0,0,0,4.224,0l4.89-4.89a2.988,2.988,0,0,0,0-4.224L48.113,39a2.083,2.083,0,0,1,1.475-3.556h5.426A2.989,2.989,0,0,0,58,32.459V25.541A2.989,2.989,0,0,0,55.014,22.556Zm.838,9.9a.839.839,0,0,1-.838.838H49.588A4.232,4.232,0,0,0,46.6,40.521l3.837,3.836a.838.838,0,0,1,0,1.186l-4.89,4.89a.838.838,0,0,1-1.186,0L40.521,46.6A4.232,4.232,0,0,0,33.3,49.588v5.426a.839.839,0,0,1-.838.838H25.541a.839.839,0,0,1-.838-.838V49.588a4.166,4.166,0,0,0-2.612-3.91,4.28,4.28,0,0,0-1.647-.334,4.173,4.173,0,0,0-2.966,1.25l-3.836,3.837a.838.838,0,0,1-1.186,0l-4.89-4.89a.838.838,0,0,1,0-1.186L11.4,40.519A4.231,4.231,0,0,0,8.412,33.3H2.986a.839.839,0,0,1-.838-.838V25.541a.839.839,0,0,1,.838-.838H8.412A4.232,4.232,0,0,0,11.4,17.479L7.568,13.644a.838.838,0,0,1,0-1.186l4.89-4.89a.838.838,0,0,1,1.186,0L17.479,11.4A4.232,4.232,0,0,0,24.7,8.412V2.986a.839.839,0,0,1,.838-.838h6.916a.839.839,0,0,1,.839.838V8.412A4.232,4.232,0,0,0,40.521,11.4l3.836-3.836a.838.838,0,0,1,1.186,0l4.89,4.89a.838.838,0,0,1,0,1.186L46.6,17.481A4.232,4.232,0,0,0,49.588,24.7h5.426a.837.837,0,0,1,.838.837Z"/>
  <path id="Path_356" data-name="Path 356" class="cls-1" d="M27,18a9,9,0,1,0,9,9A9.01,9.01,0,0,0,27,18Zm0,16a7,7,0,1,1,7-7A7.009,7.009,0,0,1,27,34Z" transform="translate(2 2)"/>
</svg>
